<svg width="70" height="70" viewBox="0 0 70 70" fill="none" xmlns="http://www.w3.org/2000/svg">
<path fill-rule="evenodd" clip-rule="evenodd" d="M35 0C15.6713 0 0 15.6713 0 35C0 54.3288 15.6713 70 35 70C54.3288 70 70 54.3288 70 35C70 15.6713 54.3288 0 35 0ZM51.2225 23.8029C50.6975 29.3358 48.4167 42.7671 47.2587 48.965C46.7687 51.59 45.8004 52.4679 44.8671 52.5525C42.8342 52.7392 41.2913 51.2079 39.3225 49.9188C36.2425 47.9004 34.5013 46.6433 31.5117 44.6717C28.0554 42.3937 30.2954 41.1425 32.2642 39.0979C32.7804 38.5612 41.7346 30.415 41.9096 29.6771C41.93 29.5838 41.9533 29.2396 41.7463 29.0588C41.5392 28.8779 41.2388 28.9392 41.0229 28.9888C40.7137 29.0588 35.7933 32.3108 26.2588 38.745C24.8617 39.7046 23.5958 40.1713 22.4613 40.1479C21.2129 40.1217 18.8096 39.4421 17.0217 38.8587C14.8313 38.1471 13.0871 37.7679 13.2388 36.5604C13.3175 35.9304 14.1838 35.2858 15.8404 34.6267C26.0429 30.1817 32.8475 27.2504 36.2513 25.8329C45.9725 21.7904 47.9908 21.0875 49.3092 21.0642C50.96 21.0408 51.3567 22.4029 51.2225 23.8029Z" fill="white"/>
</svg>
