<svg width="70" height="70" viewBox="0 0 70 70" fill="none" xmlns="http://www.w3.org/2000/svg">
<path d="M35 0C15.6707 0 0 15.67 0 35C0 54.33 15.6707 70 35 70C54.3293 70 70 54.33 70 35C70 15.67 54.3293 0 35 0ZM50.4335 40.632C52.0648 42.2254 53.7907 43.7249 55.2551 45.483C55.9039 46.2607 56.5155 47.0649 56.9809 47.9693C57.6455 49.2591 57.0454 50.6734 55.891 50.75L48.7206 50.7486C46.8687 50.9018 45.395 50.1549 44.1525 48.8888C43.1607 47.8798 42.2405 46.8021 41.2852 45.7587C40.8949 45.3305 40.4839 44.9273 39.994 44.6101C39.0165 43.9741 38.1672 44.1689 37.6072 45.1901C37.0365 46.2292 36.9062 47.3807 36.8517 48.5372C36.7737 50.228 36.2638 50.6698 34.5673 50.7493C30.9424 50.919 27.5029 50.369 24.3062 48.5415C21.4861 46.9295 19.3034 44.6544 17.4014 42.0786C13.6977 37.0572 10.8611 31.546 8.3125 25.8765C7.73889 24.5997 8.15854 23.9165 9.56713 23.8901C11.9074 23.8449 14.2476 23.8507 16.5879 23.8879C17.5403 23.9029 18.1705 24.4479 18.5364 25.3466C19.8011 28.4581 21.3515 31.4185 23.2943 34.1641C23.812 34.8953 24.3405 35.6243 25.0932 36.1406C25.9239 36.7106 26.5569 36.5223 26.9486 35.5949C27.1993 35.0056 27.3074 34.3754 27.3618 33.7438C27.548 31.5804 27.5702 29.4177 27.2479 27.2629C27.0474 25.9145 26.2891 25.0437 24.9449 24.7888C24.2603 24.6592 24.3606 24.4057 24.6936 24.0147C25.2715 23.3386 25.8129 22.9204 26.8949 22.9204L34.9963 22.919C36.2731 23.1696 36.5596 23.7425 36.7329 25.0287L36.74 34.0316C36.725 34.5293 36.9899 36.0045 37.8837 36.3304C38.5998 36.5667 39.0724 35.9924 39.5006 35.5391C41.4435 33.4774 42.8277 31.044 44.0673 28.5254C44.6144 27.4148 45.0863 26.2654 45.5446 25.1139C45.8855 24.2624 46.4154 23.8435 47.3764 23.8578L55.1778 23.8671C55.4076 23.8671 55.6411 23.8693 55.8688 23.9087C57.1836 24.1335 57.5438 24.6993 57.137 25.9818C56.4968 27.997 55.253 29.6755 54.037 31.3584C52.7337 33.1601 51.3437 34.8988 50.0533 36.7085C48.8674 38.3627 48.9612 39.1955 50.4335 40.632Z" fill="white"/>
</svg>
